<svg id="Outline" viewBox="0 0 512 512" xmlns="http://www.w3.org/2000/svg"><path d="m64 424h120a24.027 24.027 0 0 1 24 24v8a40.045 40.045 0 0 0 40 40h200a8 8 0 0 0 0-16h-200a24.027 24.027 0 0 1 -24-24v-8a40.045 40.045 0 0 0 -40-40h-120a8 8 0 0 0 0 16z"/><path d="m375.1 186.037c.009-.009.02-.017.03-.027l33.941-33.941c.01-.01.019-.021.028-.031l11.281-11.281a40 40 0 0 0 0-56.573l-56.566-56.573a40.069 40.069 0 0 0 -56.573 0l-11.28 11.29c-.01.01-.021.017-.03.027l-33.942 33.945c-.015.015-.027.032-.042.047l-175.323 175.313a7.99 7.99 0 0 0 -2.156 3.961l-.006.028c-.011.051-.023.1-.033.151l-28.246 129.927a8 8 0 0 0 9.516 9.516l129.921-28.242.178-.039h.009a8 8 0 0 0 3.961-2.156zm-278.112 83.875 81.1 81.1-55.759 12.121-37.462-37.462zm227.227-123.5-164.05 164.049-22.626-22.626 164.049-164.049zm11.314 11.314 22.626 22.626-164.045 164.054-22.631-22.631zm16.971-118.8 56.562 56.574a24.029 24.029 0 0 1 0 33.946l-5.652 5.654-90.51-90.512 5.654-5.659a24.048 24.048 0 0 1 33.946-.003zm-50.912 16.974 90.51 90.51-22.628 22.63-90.51-90.51zm-33.94 33.943 22.626 22.627-164.049 164.051-22.631-22.631zm-186.822 254.415 22.916 22.916-29.281 6.365z"/></svg>