<?xml version="1.0" encoding="iso-8859-1"?>
<!-- Generator: Adobe Illustrator 19.0.0, SVG Export Plug-In . SVG Version: 6.00 Build 0)  -->
<svg version="1.1" id="Capa_1" xmlns="http://www.w3.org/2000/svg" xmlns:xlink="http://www.w3.org/1999/xlink" x="0px" y="0px"
	 viewBox="0 0 512.001 512.001" style="enable-background:new 0 0 512.001 512.001;" xml:space="preserve">
<g>
	<g>
		<path d="M376.44,438.521c-4.109,0-7.438,3.329-7.438,7.438v51.164H120.426v-45.266h78.712c4.109,0,7.438-3.329,7.438-7.438
			V337.588c0-4.108-3.329-7.438-7.438-7.438s-7.438,3.33-7.438,7.438v99.394h-78.712c-4.109,0-7.438,3.329-7.438,7.438v60.142
			c0,4.109,3.329,7.438,7.438,7.438H376.44c4.109,0,7.438-3.329,7.438-7.438v-58.602
			C383.878,441.852,380.549,438.521,376.44,438.521z"/>
	</g>
</g>
<g>
	<g>
		<path d="M199.138,74.379H92.929c-3.195,0-6.033,2.04-7.051,5.068l-18.797,55.919H31.986v-30.491c0-4.109-3.329-7.438-7.438-7.438
			s-7.438,3.329-7.438,7.438v37.93c0,4.109,3.329,7.438,7.438,7.438h47.879c3.195,0,6.033-2.04,7.051-5.068l18.798-55.919H191.7
			v218.58c0,4.109,3.329,7.438,7.438,7.438s7.438-3.329,7.438-7.438V81.818C206.577,77.709,203.247,74.379,199.138,74.379z"/>
	</g>
</g>
<g>
	<g>
		<path d="M492.713,266.435l-25.223-25.223c-2.906-2.904-7.615-2.904-10.52,0l-0.402,0.402l-12.401-48.722
			c-0.673-2.643-2.737-4.705-5.38-5.375l-57.404-14.559c-3.985-1.015-8.028,1.398-9.038,5.381c-1.011,3.982,1.399,8.029,5.381,9.038
			l53.116,13.471l13.49,53.001l-57.396,57.395l-53.002-13.489l-29.358-115.744l49.296,49.296
			c-3.405,7.653-1.994,16.945,4.272,23.214c4.061,4.061,9.396,6.091,14.731,6.091c5.335,0,10.67-2.03,14.731-6.091
			c3.934-3.935,6.101-9.166,6.101-14.731c0-5.564-2.168-10.796-6.101-14.732c-6.267-6.267-15.56-7.676-23.212-4.272l-49.296-49.296
			l32.956,8.359c3.977,1.01,8.028-1.398,9.038-5.381c1.01-3.982-1.399-8.029-5.381-9.038l-53.984-13.692V89.256h93.425
			l18.797,55.919c1.018,3.029,3.856,5.068,7.051,5.068h47.879c4.109,0,7.438-3.329,7.438-7.438V7.438
			c0-4.108-3.329-7.438-7.438-7.438H24.548c-4.109,0-7.438,3.33-7.438,7.438v67.684c0,4.109,3.329,7.438,7.438,7.438
			s7.438-3.329,7.438-7.438V14.877h425.455v120.49h-35.093l-18.797-55.919c-1.018-3.029-3.856-5.068-7.051-5.068H290.289
			c-4.109,0-7.438,3.329-7.438,7.438V345.27h-10.104c-4.109,0-7.438,3.329-7.438,7.438v35.951c0,4.109,3.329,7.438,7.438,7.438
			h35.95c4.109,0,7.438-3.329,7.438-7.438v-35.951c0-4.109-3.329-7.438-7.438-7.438h-10.969V215.512l22.875,90.19
			c0.67,2.643,2.733,4.707,5.375,5.38l48.721,12.4l-0.402,0.402c-2.905,2.906-2.905,7.615,0,10.52l25.223,25.223
			c1.453,1.452,3.357,2.178,5.26,2.178c1.903,0,3.807-0.726,5.26-2.178l82.671-82.671
			C495.618,274.048,495.618,269.339,492.713,266.435z M368.666,235.579c1.125-1.126,2.62-1.745,4.21-1.745
			c1.591,0,3.085,0.619,4.21,1.745c2.323,2.322,2.323,6.099,0,8.421c-2.321,2.323-6.099,2.322-8.42,0.001
			C366.345,241.679,366.345,237.901,368.666,235.579z M301.257,360.146v21.074h-21.073v-21.074H301.257z M404.781,343.846
			l-14.703-14.703l4.292-4.292c0.033-0.032,0.068-0.06,0.101-0.091l63.375-63.375c0.025-0.025,0.045-0.054,0.068-0.078l4.314-4.315
			l14.703,14.703L404.781,343.846z"/>
	</g>
</g>
<g>
</g>
<g>
</g>
<g>
</g>
<g>
</g>
<g>
</g>
<g>
</g>
<g>
</g>
<g>
</g>
<g>
</g>
<g>
</g>
<g>
</g>
<g>
</g>
<g>
</g>
<g>
</g>
<g>
</g>
</svg>
